<?xml version="1.0" standalone="no"?>
<!DOCTYPE svg PUBLIC "-//W3C//DTD SVG 20010904//EN"
 "http://www.w3.org/TR/2001/REC-SVG-20010904/DTD/svg10.dtd">
<svg version="1.0" xmlns="http://www.w3.org/2000/svg"
 width="704.000000pt" height="525.000000pt" viewBox="0 0 704.000000 525.000000"
 preserveAspectRatio="xMidYMid meet">

<g transform="translate(0.000000,525.000000) scale(0.100000,-0.100000)"
fill="#000000" stroke="none">
<path d="M2650 4812 c-5 -9 -10 -13 -10 -9 0 5 -16 0 -35 -12 -19 -11 -35 -16
-35 -12 0 14 -44 0 -57 -18 -6 -9 -15 -13 -19 -8 -4 4 -2 7 4 7 7 0 12 5 12
12 0 6 -13 -1 -30 -17 -17 -16 -30 -23 -30 -16 0 10 -3 11 -13 2 -8 -6 -17 -7
-21 -3 -4 4 -6 0 -4 -8 2 -9 -5 -14 -18 -15 -11 0 -28 -6 -36 -12 -8 -7 -29
-16 -46 -19 -18 -4 -29 -11 -26 -16 4 -6 -3 -5 -14 1 -15 8 -23 8 -28 -1 -5
-7 -3 -8 6 -3 9 6 11 4 6 -4 -5 -7 -14 -10 -22 -7 -8 3 -14 0 -14 -7 0 -8 -4
-6 -10 3 -5 8 -10 10 -10 4 0 -11 -46 -29 -64 -25 -4 1 -14 -4 -22 -10 -8 -6
-14 -8 -14 -3 0 5 -6 2 -13 -6 -7 -8 -23 -21 -36 -28 -19 -11 -22 -11 -16 0 6
10 5 10 -4 2 -9 -8 -51 -199 -51 -230 0 -2 24 -10 53 -19 61 -17 114 -20 294
-17 l133 2 24 49 c27 53 40 61 94 61 31 0 71 -23 230 -131 124 -84 192 -136
192 -147 0 -22 -336 -638 -347 -635 -4 1 -15 4 -23 7 -11 4 -27 -15 -57 -69
-24 -41 -43 -76 -43 -79 0 -3 13 -6 30 -8 l29 -3 -35 -63 -36 -64 -67 4 -66 3
-32 -48 c-17 -26 -39 -71 -47 -100 -18 -60 -54 -120 -119 -197 -26 -30 -59
-77 -72 -105 l-26 -50 63 -12 c35 -7 286 -51 558 -98 272 -48 825 -145 1229
-216 403 -71 745 -129 760 -129 14 0 58 12 96 26 39 15 79 28 91 31 19 4 25
26 63 241 23 131 44 249 47 265 4 17 1 27 -6 27 -7 0 -246 -65 -531 -145 -285
-80 -523 -145 -529 -145 -9 0 -528 275 -539 285 -2 2 -6 24 -8 48 -4 32 -11
46 -27 53 -13 6 -20 17 -19 29 3 23 -32 126 -57 170 -26 46 -212 583 -208 603
2 9 22 26 45 37 35 17 48 32 79 92 45 88 44 142 -3 201 -44 55 -63 96 -63 138
0 21 32 134 71 252 39 118 67 218 62 222 -4 4 -134 28 -288 55 -154 26 -288
49 -297 51 -10 1 -22 -5 -28 -14z"/>
<path d="M4830 3431 c-36 -10 -104 -29 -152 -42 -78 -21 -88 -26 -88 -47 0
-14 8 -26 23 -31 13 -5 111 -66 218 -135 165 -106 195 -123 201 -108 12 28 68
365 62 371 -3 3 -49 7 -102 8 -70 2 -115 -2 -162 -16z"/>
</g>
</svg>
